<?xml version="1.0" encoding="utf-8" standalone="no"?>
<!DOCTYPE svg PUBLIC "-//W3C//DTD SVG 1.1//EN"
  "http://www.w3.org/Graphics/SVG/1.1/DTD/svg11.dtd">
<svg xmlns:xlink="http://www.w3.org/1999/xlink" width="576pt" height="576pt" viewBox="0 0 576 576" xmlns="http://www.w3.org/2000/svg" version="1.1">
 <metadata>
  <rdf:RDF xmlns:dc="http://purl.org/dc/elements/1.1/" xmlns:cc="http://creativecommons.org/ns#" xmlns:rdf="http://www.w3.org/1999/02/22-rdf-syntax-ns#">
   <cc:Work>
    <dc:type rdf:resource="http://purl.org/dc/dcmitype/StillImage"/>
    <dc:date>2025-11-13T17:07:48.899641</dc:date>
    <dc:format>image/svg+xml</dc:format>
    <dc:creator>
     <cc:Agent>
      <dc:title>Matplotlib v3.10.6, https://matplotlib.org/</dc:title>
     </cc:Agent>
    </dc:creator>
   </cc:Work>
  </rdf:RDF>
 </metadata>
 <defs>
  <style type="text/css">*{stroke-linejoin: round; stroke-linecap: butt}</style>
 </defs>
 <g id="figure_1">
  <g id="patch_1">
   <path d="M 0 576 
L 576 576 
L 576 0 
L 0 0 
z
" style="fill: #ffffff"/>
  </g>
  <g id="axes_1">
   <g id="patch_2">
    <path d="M 436.424 313.7808 
C 436.424 285.976409 430.947141 258.44238 420.306861 232.754471 
C 409.666581 207.066563 394.069807 183.724341 374.409133 164.063667 
C 354.748459 144.402993 331.406237 128.806219 305.718329 118.165939 
C 280.03042 107.525659 252.496391 102.0488 224.692 102.0488 
C 196.887609 102.0488 169.35358 107.525659 143.665671 118.165939 
C 117.977763 128.806219 94.635541 144.402993 74.974867 164.063667 
C 55.314193 183.724341 39.717419 207.066563 29.077139 232.754471 
C 18.436859 258.44238 12.96 285.976409 12.96 313.7808 
C 12.96 341.585191 18.436859 369.11922 29.077139 394.807129 
C 39.717419 420.495037 55.314193 443.837259 74.974867 463.497933 
C 94.635541 483.158607 117.977763 498.755381 143.665671 509.395661 
C 169.35358 520.035941 196.887609 525.5128 224.692 525.5128 
C 252.496391 525.5128 280.03042 520.035941 305.718329 509.395661 
C 331.406237 498.755381 354.748459 483.158607 374.409133 463.497933 
C 394.069807 443.837259 409.666581 420.495037 420.306861 394.807129 
C 430.947141 369.11922 436.424 341.585191 436.424 313.7808 
M 224.692 313.7808 
C 224.692 313.7808 224.692 313.7808 224.692 313.7808 
C 224.692 313.7808 224.692 313.7808 224.692 313.7808 
C 224.692 313.7808 224.692 313.7808 224.692 313.7808 
C 224.692 313.7808 224.692 313.7808 224.692 313.7808 
C 224.692 313.7808 224.692 313.7808 224.692 313.7808 
C 224.692 313.7808 224.692 313.7808 224.692 313.7808 
C 224.692 313.7808 224.692 313.7808 224.692 313.7808 
C 224.692 313.7808 224.692 313.7808 224.692 313.7808 
C 224.692 313.7808 224.692 313.7808 224.692 313.7808 
C 224.692 313.7808 224.692 313.7808 224.692 313.7808 
C 224.692 313.7808 224.692 313.7808 224.692 313.7808 
C 224.692 313.7808 224.692 313.7808 224.692 313.7808 
C 224.692 313.7808 224.692 313.7808 224.692 313.7808 
C 224.692 313.7808 224.692 313.7808 224.692 313.7808 
C 224.692 313.7808 224.692 313.7808 224.692 313.7808 
C 224.692 313.7808 224.692 313.7808 224.692 313.7808 
z
" style="fill: #ffffff"/>
   </g>
   <g id="matplotlib.axis_1">
    <g id="xtick_1">
     <g id="line2d_1">
      <path d="M 224.692 313.7808 
L 436.424 313.7808 
" clip-path="url(#p8307c9f7b0)" style="fill: none; stroke: #cccccc; stroke-linecap: round"/>
     </g>
     <g id="text_1">
      <!-- Önismeret fejlesztése (1–5) -->
      <g style="fill: #262626" transform="translate(385.679625 317.354081) scale(0.11 -0.11)">
       <defs>
        <path id="ArialMT-d6" d="M 309 2231 
Q 309 3372 921 4017 
Q 1534 4663 2503 4663 
Q 3138 4663 3647 4359 
Q 4156 4056 4423 3514 
Q 4691 2972 4691 2284 
Q 4691 1588 4409 1038 
Q 4128 488 3612 205 
Q 3097 -78 2500 -78 
Q 1853 -78 1343 234 
Q 834 547 571 1087 
Q 309 1628 309 2231 
z
M 934 2222 
Q 934 1394 1379 917 
Q 1825 441 2497 441 
Q 3181 441 3623 922 
Q 4066 1403 4066 2288 
Q 4066 2847 3877 3264 
Q 3688 3681 3323 3911 
Q 2959 4141 2506 4141 
Q 1863 4141 1398 3698 
Q 934 3256 934 2222 
z
M 1615 4865 
L 1615 5505 
L 2202 5505 
L 2202 4865 
L 1615 4865 
z
M 2780 4865 
L 2780 5505 
L 3368 5505 
L 3368 4865 
L 2780 4865 
z
" transform="scale(0.015625)"/>
        <path id="ArialMT-6e" d="M 422 0 
L 422 3319 
L 928 3319 
L 928 2847 
Q 1294 3394 1984 3394 
Q 2284 3394 2536 3286 
Q 2788 3178 2913 3003 
Q 3038 2828 3088 2588 
Q 3119 2431 3119 2041 
L 3119 0 
L 2556 0 
L 2556 2019 
Q 2556 2363 2490 2533 
Q 2425 2703 2258 2804 
Q 2091 2906 1866 2906 
Q 1506 2906 1245 2678 
Q 984 2450 984 1813 
L 984 0 
L 422 0 
z
" transform="scale(0.015625)"/>
        <path id="ArialMT-69" d="M 425 3934 
L 425 4581 
L 988 4581 
L 988 3934 
L 425 3934 
z
M 425 0 
L 425 3319 
L 988 3319 
L 988 0 
L 425 0 
z
" transform="scale(0.015625)"/>
        <path id="ArialMT-73" d="M 197 991 
L 753 1078 
Q 800 744 1014 566 
Q 1228 388 1613 388 
Q 2000 388 2187 545 
Q 2375 703 2375 916 
Q 2375 1106 2209 1216 
Q 2094 1291 1634 1406 
Q 1016 1563 777 1677 
Q 538 1791 414 1992 
Q 291 2194 291 2438 
Q 291 2659 392 2848 
Q 494 3038 669 3163 
Q 800 3259 1026 3326 
Q 1253 3394 1513 3394 
Q 1903 3394 2198 3281 
Q 2494 3169 2634 2976 
Q 2775 2784 2828 2463 
L 2278 2388 
Q 2241 2644 2061 2787 
Q 1881 2931 1553 2931 
Q 1166 2931 1000 2803 
Q 834 2675 834 2503 
Q 834 2394 903 2306 
Q 972 2216 1119 2156 
Q 1203 2125 1616 2013 
Q 2213 1853 2448 1751 
Q 2684 1650 2818 1456 
Q 2953 1263 2953 975 
Q 2953 694 2789 445 
Q 2625 197 2315 61 
Q 2006 -75 1616 -75 
Q 969 -75 630 194 
Q 291 463 197 991 
z
" transform="scale(0.015625)"/>
        <path id="ArialMT-6d" d="M 422 0 
L 422 3319 
L 925 3319 
L 925 2853 
Q 1081 3097 1340 3245 
Q 1600 3394 1931 3394 
Q 2300 3394 2536 3241 
Q 2772 3088 2869 2813 
Q 3263 3394 3894 3394 
Q 4388 3394 4653 3120 
Q 4919 2847 4919 2278 
L 4919 0 
L 4359 0 
L 4359 2091 
Q 4359 2428 4304 2576 
Q 4250 2725 4106 2815 
Q 3963 2906 3769 2906 
Q 3419 2906 3187 2673 
Q 2956 2441 2956 1928 
L 2956 0 
L 2394 0 
L 2394 2156 
Q 2394 2531 2256 2718 
Q 2119 2906 1806 2906 
Q 1569 2906 1367 2781 
Q 1166 2656 1075 2415 
Q 984 2175 984 1722 
L 984 0 
L 422 0 
z
" transform="scale(0.015625)"/>
        <path id="ArialMT-65" d="M 2694 1069 
L 3275 997 
Q 3138 488 2766 206 
Q 2394 -75 1816 -75 
Q 1088 -75 661 373 
Q 234 822 234 1631 
Q 234 2469 665 2931 
Q 1097 3394 1784 3394 
Q 2450 3394 2872 2941 
Q 3294 2488 3294 1666 
Q 3294 1616 3291 1516 
L 816 1516 
Q 847 969 1125 678 
Q 1403 388 1819 388 
Q 2128 388 2347 550 
Q 2566 713 2694 1069 
z
M 847 1978 
L 2700 1978 
Q 2663 2397 2488 2606 
Q 2219 2931 1791 2931 
Q 1403 2931 1139 2672 
Q 875 2413 847 1978 
z
" transform="scale(0.015625)"/>
        <path id="ArialMT-72" d="M 416 0 
L 416 3319 
L 922 3319 
L 922 2816 
Q 1116 3169 1280 3281 
Q 1444 3394 1641 3394 
Q 1925 3394 2219 3213 
L 2025 2691 
Q 1819 2813 1613 2813 
Q 1428 2813 1281 2702 
Q 1134 2591 1072 2394 
Q 978 2094 978 1738 
L 978 0 
L 416 0 
z
" transform="scale(0.015625)"/>
        <path id="ArialMT-74" d="M 1650 503 
L 1731 6 
Q 1494 -44 1306 -44 
Q 1000 -44 831 53 
Q 663 150 594 308 
Q 525 466 525 972 
L 525 2881 
L 113 2881 
L 113 3319 
L 525 3319 
L 525 4141 
L 1084 4478 
L 1084 3319 
L 1650 3319 
L 1650 2881 
L 1084 2881 
L 1084 941 
Q 1084 700 1114 631 
Q 1144 563 1211 522 
Q 1278 481 1403 481 
Q 1497 481 1650 503 
z
" transform="scale(0.015625)"/>
        <path id="ArialMT-20" transform="scale(0.015625)"/>
        <path id="ArialMT-66" d="M 556 0 
L 556 2881 
L 59 2881 
L 59 3319 
L 556 3319 
L 556 3672 
Q 556 4006 616 4169 
Q 697 4388 901 4523 
Q 1106 4659 1475 4659 
Q 1713 4659 2000 4603 
L 1916 4113 
Q 1741 4144 1584 4144 
Q 1328 4144 1222 4034 
Q 1116 3925 1116 3625 
L 1116 3319 
L 1763 3319 
L 1763 2881 
L 1116 2881 
L 1116 0 
L 556 0 
z
" transform="scale(0.015625)"/>
        <path id="ArialMT-6a" d="M 419 3928 
L 419 4581 
L 981 4581 
L 981 3928 
L 419 3928 
z
M -294 -1288 
L -188 -809 
Q -19 -853 78 -853 
Q 250 -853 334 -739 
Q 419 -625 419 -169 
L 419 3319 
L 981 3319 
L 981 -181 
Q 981 -794 822 -1034 
Q 619 -1347 147 -1347 
Q -81 -1347 -294 -1288 
z
" transform="scale(0.015625)"/>
        <path id="ArialMT-6c" d="M 409 0 
L 409 4581 
L 972 4581 
L 972 0 
L 409 0 
z
" transform="scale(0.015625)"/>
        <path id="ArialMT-7a" d="M 125 0 
L 125 456 
L 2238 2881 
Q 1878 2863 1603 2863 
L 250 2863 
L 250 3319 
L 2963 3319 
L 2963 2947 
L 1166 841 
L 819 456 
Q 1197 484 1528 484 
L 3063 484 
L 3063 0 
L 125 0 
z
" transform="scale(0.015625)"/>
        <path id="ArialMT-e9" d="M 2694 1069 
L 3275 997 
Q 3138 488 2766 206 
Q 2394 -75 1816 -75 
Q 1088 -75 661 373 
Q 234 822 234 1631 
Q 234 2469 665 2931 
Q 1097 3394 1784 3394 
Q 2450 3394 2872 2941 
Q 3294 2488 3294 1666 
Q 3294 1616 3291 1516 
L 816 1516 
Q 847 969 1125 678 
Q 1403 388 1819 388 
Q 2128 388 2347 550 
Q 2566 713 2694 1069 
z
M 847 1978 
L 2700 1978 
Q 2663 2397 2488 2606 
Q 2219 2931 1791 2931 
Q 1403 2931 1139 2672 
Q 875 2413 847 1978 
z
M 1454 3731 
L 1869 4606 
L 2607 4606 
L 1919 3731 
L 1454 3731 
z
" transform="scale(0.015625)"/>
        <path id="ArialMT-28" d="M 1497 -1347 
Q 1031 -759 709 28 
Q 388 816 388 1659 
Q 388 2403 628 3084 
Q 909 3875 1497 4659 
L 1900 4659 
Q 1522 4009 1400 3731 
Q 1209 3300 1100 2831 
Q 966 2247 966 1656 
Q 966 153 1900 -1347 
L 1497 -1347 
z
" transform="scale(0.015625)"/>
        <path id="ArialMT-31" d="M 2384 0 
L 1822 0 
L 1822 3584 
Q 1619 3391 1289 3197 
Q 959 3003 697 2906 
L 697 3450 
Q 1169 3672 1522 3987 
Q 1875 4303 2022 4600 
L 2384 4600 
L 2384 0 
z
" transform="scale(0.015625)"/>
        <path id="ArialMT-2013" d="M -13 1431 
L -13 1884 
L 3547 1884 
L 3547 1431 
L -13 1431 
z
" transform="scale(0.015625)"/>
        <path id="ArialMT-35" d="M 266 1200 
L 856 1250 
Q 922 819 1161 601 
Q 1400 384 1738 384 
Q 2144 384 2425 690 
Q 2706 997 2706 1503 
Q 2706 1984 2436 2262 
Q 2166 2541 1728 2541 
Q 1456 2541 1237 2417 
Q 1019 2294 894 2097 
L 366 2166 
L 809 4519 
L 3088 4519 
L 3088 3981 
L 1259 3981 
L 1013 2750 
Q 1425 3038 1878 3038 
Q 2478 3038 2890 2622 
Q 3303 2206 3303 1553 
Q 3303 931 2941 478 
Q 2500 -78 1738 -78 
Q 1113 -78 717 272 
Q 322 622 266 1200 
z
" transform="scale(0.015625)"/>
        <path id="ArialMT-29" d="M 791 -1347 
L 388 -1347 
Q 1322 153 1322 1656 
Q 1322 2244 1188 2822 
Q 1081 3291 891 3722 
Q 769 4003 388 4659 
L 791 4659 
Q 1378 3875 1659 3084 
Q 1900 2403 1900 1659 
Q 1900 816 1576 28 
Q 1253 -759 791 -1347 
z
" transform="scale(0.015625)"/>
       </defs>
       <use xlink:href="#ArialMT-d6"/>
       <use xlink:href="#ArialMT-6e" transform="translate(77.783203 0)"/>
       <use xlink:href="#ArialMT-69" transform="translate(133.398438 0)"/>
       <use xlink:href="#ArialMT-73" transform="translate(155.615234 0)"/>
       <use xlink:href="#ArialMT-6d" transform="translate(205.615234 0)"/>
       <use xlink:href="#ArialMT-65" transform="translate(288.916016 0)"/>
       <use xlink:href="#ArialMT-72" transform="translate(344.53125 0)"/>
       <use xlink:href="#ArialMT-65" transform="translate(377.832031 0)"/>
       <use xlink:href="#ArialMT-74" transform="translate(433.447266 0)"/>
       <use xlink:href="#ArialMT-20" transform="translate(461.230469 0)"/>
       <use xlink:href="#ArialMT-66" transform="translate(489.013672 0)"/>
       <use xlink:href="#ArialMT-65" transform="translate(516.796875 0)"/>
       <use xlink:href="#ArialMT-6a" transform="translate(572.412109 0)"/>
       <use xlink:href="#ArialMT-6c" transform="translate(594.628906 0)"/>
       <use xlink:href="#ArialMT-65" transform="translate(616.845703 0)"/>
       <use xlink:href="#ArialMT-73" transform="translate(672.460938 0)"/>
       <use xlink:href="#ArialMT-7a" transform="translate(722.460938 0)"/>
       <use xlink:href="#ArialMT-74" transform="translate(772.460938 0)"/>
       <use xlink:href="#ArialMT-e9" transform="translate(800.244141 0)"/>
       <use xlink:href="#ArialMT-73" transform="translate(855.859375 0)"/>
       <use xlink:href="#ArialMT-65" transform="translate(905.859375 0)"/>
       <use xlink:href="#ArialMT-20" transform="translate(961.474609 0)"/>
       <use xlink:href="#ArialMT-28" transform="translate(989.257812 0)"/>
       <use xlink:href="#ArialMT-31" transform="translate(1022.558594 0)"/>
       <use xlink:href="#ArialMT-2013" transform="translate(1078.173828 0)"/>
       <use xlink:href="#ArialMT-35" transform="translate(1133.789062 0)"/>
       <use xlink:href="#ArialMT-29" transform="translate(1189.404297 0)"/>
      </g>
     </g>
    </g>
    <g id="xtick_2">
     <g id="line2d_2">
      <path d="M 224.692 313.7808 
L 118.826 130.415509 
" clip-path="url(#p8307c9f7b0)" style="fill: none; stroke: #cccccc; stroke-linecap: round"/>
     </g>
     <g id="text_2">
      <!-- A stressz kezelése (6–11) -->
      <g style="fill: #262626" transform="translate(48.010922 118.97234) scale(0.11 -0.11)">
       <defs>
        <path id="ArialMT-41" d="M -9 0 
L 1750 4581 
L 2403 4581 
L 4278 0 
L 3588 0 
L 3053 1388 
L 1138 1388 
L 634 0 
L -9 0 
z
M 1313 1881 
L 2866 1881 
L 2388 3150 
Q 2169 3728 2063 4100 
Q 1975 3659 1816 3225 
L 1313 1881 
z
" transform="scale(0.015625)"/>
        <path id="ArialMT-6b" d="M 425 0 
L 425 4581 
L 988 4581 
L 988 1969 
L 2319 3319 
L 3047 3319 
L 1778 2088 
L 3175 0 
L 2481 0 
L 1384 1697 
L 988 1316 
L 988 0 
L 425 0 
z
" transform="scale(0.015625)"/>
        <path id="ArialMT-36" d="M 3184 3459 
L 2625 3416 
Q 2550 3747 2413 3897 
Q 2184 4138 1850 4138 
Q 1581 4138 1378 3988 
Q 1113 3794 959 3422 
Q 806 3050 800 2363 
Q 1003 2672 1297 2822 
Q 1591 2972 1913 2972 
Q 2475 2972 2870 2558 
Q 3266 2144 3266 1488 
Q 3266 1056 3080 686 
Q 2894 316 2569 119 
Q 2244 -78 1831 -78 
Q 1128 -78 684 439 
Q 241 956 241 2144 
Q 241 3472 731 4075 
Q 1159 4600 1884 4600 
Q 2425 4600 2770 4297 
Q 3116 3994 3184 3459 
z
M 888 1484 
Q 888 1194 1011 928 
Q 1134 663 1356 523 
Q 1578 384 1822 384 
Q 2178 384 2434 671 
Q 2691 959 2691 1453 
Q 2691 1928 2437 2201 
Q 2184 2475 1800 2475 
Q 1419 2475 1153 2201 
Q 888 1928 888 1484 
z
" transform="scale(0.015625)"/>
       </defs>
       <use xlink:href="#ArialMT-41"/>
       <use xlink:href="#ArialMT-20" transform="translate(61.199219 0)"/>
       <use xlink:href="#ArialMT-73" transform="translate(88.982422 0)"/>
       <use xlink:href="#ArialMT-74" transform="translate(138.982422 0)"/>
       <use xlink:href="#ArialMT-72" transform="translate(166.765625 0)"/>
       <use xlink:href="#ArialMT-65" transform="translate(200.066406 0)"/>
       <use xlink:href="#ArialMT-73" transform="translate(255.681641 0)"/>
       <use xlink:href="#ArialMT-73" transform="translate(305.681641 0)"/>
       <use xlink:href="#ArialMT-7a" transform="translate(355.681641 0)"/>
       <use xlink:href="#ArialMT-20" transform="translate(405.681641 0)"/>
       <use xlink:href="#ArialMT-6b" transform="translate(433.464844 0)"/>
       <use xlink:href="#ArialMT-65" transform="translate(483.464844 0)"/>
       <use xlink:href="#ArialMT-7a" transform="translate(539.080078 0)"/>
       <use xlink:href="#ArialMT-65" transform="translate(589.080078 0)"/>
       <use xlink:href="#ArialMT-6c" transform="translate(644.695312 0)"/>
       <use xlink:href="#ArialMT-e9" transform="translate(666.912109 0)"/>
       <use xlink:href="#ArialMT-73" transform="translate(722.527344 0)"/>
       <use xlink:href="#ArialMT-65" transform="translate(772.527344 0)"/>
       <use xlink:href="#ArialMT-20" transform="translate(828.142578 0)"/>
       <use xlink:href="#ArialMT-28" transform="translate(855.925781 0)"/>
       <use xlink:href="#ArialMT-36" transform="translate(889.226562 0)"/>
       <use xlink:href="#ArialMT-2013" transform="translate(944.841797 0)"/>
       <use xlink:href="#ArialMT-31" transform="translate(1000.457031 0)"/>
       <use xlink:href="#ArialMT-31" transform="translate(1048.697266 0)"/>
       <use xlink:href="#ArialMT-29" transform="translate(1104.3125 0)"/>
      </g>
     </g>
    </g>
    <g id="xtick_3">
     <g id="line2d_3">
      <path d="M 224.692 313.7808 
L 118.826 497.146091 
" clip-path="url(#p8307c9f7b0)" style="fill: none; stroke: #cccccc; stroke-linecap: round"/>
     </g>
     <g id="text_3">
      <!-- Problémamegoldás kreatív [...] -->
      <g style="fill: #262626" transform="translate(35.992562 514.236213) scale(0.11 -0.11)">
       <defs>
        <path id="ArialMT-50" d="M 494 0 
L 494 4581 
L 2222 4581 
Q 2678 4581 2919 4538 
Q 3256 4481 3484 4323 
Q 3713 4166 3852 3881 
Q 3991 3597 3991 3256 
Q 3991 2672 3619 2267 
Q 3247 1863 2275 1863 
L 1100 1863 
L 1100 0 
L 494 0 
z
M 1100 2403 
L 2284 2403 
Q 2872 2403 3119 2622 
Q 3366 2841 3366 3238 
Q 3366 3525 3220 3729 
Q 3075 3934 2838 4000 
Q 2684 4041 2272 4041 
L 1100 4041 
L 1100 2403 
z
" transform="scale(0.015625)"/>
        <path id="ArialMT-6f" d="M 213 1659 
Q 213 2581 725 3025 
Q 1153 3394 1769 3394 
Q 2453 3394 2887 2945 
Q 3322 2497 3322 1706 
Q 3322 1066 3130 698 
Q 2938 331 2570 128 
Q 2203 -75 1769 -75 
Q 1072 -75 642 372 
Q 213 819 213 1659 
z
M 791 1659 
Q 791 1022 1069 705 
Q 1347 388 1769 388 
Q 2188 388 2466 706 
Q 2744 1025 2744 1678 
Q 2744 2294 2464 2611 
Q 2184 2928 1769 2928 
Q 1347 2928 1069 2612 
Q 791 2297 791 1659 
z
" transform="scale(0.015625)"/>
        <path id="ArialMT-62" d="M 941 0 
L 419 0 
L 419 4581 
L 981 4581 
L 981 2947 
Q 1338 3394 1891 3394 
Q 2197 3394 2470 3270 
Q 2744 3147 2920 2923 
Q 3097 2700 3197 2384 
Q 3297 2069 3297 1709 
Q 3297 856 2875 390 
Q 2453 -75 1863 -75 
Q 1275 -75 941 416 
L 941 0 
z
M 934 1684 
Q 934 1088 1097 822 
Q 1363 388 1816 388 
Q 2184 388 2453 708 
Q 2722 1028 2722 1663 
Q 2722 2313 2464 2622 
Q 2206 2931 1841 2931 
Q 1472 2931 1203 2611 
Q 934 2291 934 1684 
z
" transform="scale(0.015625)"/>
        <path id="ArialMT-61" d="M 2588 409 
Q 2275 144 1986 34 
Q 1697 -75 1366 -75 
Q 819 -75 525 192 
Q 231 459 231 875 
Q 231 1119 342 1320 
Q 453 1522 633 1644 
Q 813 1766 1038 1828 
Q 1203 1872 1538 1913 
Q 2219 1994 2541 2106 
Q 2544 2222 2544 2253 
Q 2544 2597 2384 2738 
Q 2169 2928 1744 2928 
Q 1347 2928 1158 2789 
Q 969 2650 878 2297 
L 328 2372 
Q 403 2725 575 2942 
Q 747 3159 1072 3276 
Q 1397 3394 1825 3394 
Q 2250 3394 2515 3294 
Q 2781 3194 2906 3042 
Q 3031 2891 3081 2659 
Q 3109 2516 3109 2141 
L 3109 1391 
Q 3109 606 3145 398 
Q 3181 191 3288 0 
L 2700 0 
Q 2613 175 2588 409 
z
M 2541 1666 
Q 2234 1541 1622 1453 
Q 1275 1403 1131 1340 
Q 988 1278 909 1158 
Q 831 1038 831 891 
Q 831 666 1001 516 
Q 1172 366 1500 366 
Q 1825 366 2078 508 
Q 2331 650 2450 897 
Q 2541 1088 2541 1459 
L 2541 1666 
z
" transform="scale(0.015625)"/>
        <path id="ArialMT-67" d="M 319 -275 
L 866 -356 
Q 900 -609 1056 -725 
Q 1266 -881 1628 -881 
Q 2019 -881 2231 -725 
Q 2444 -569 2519 -288 
Q 2563 -116 2559 434 
Q 2191 0 1641 0 
Q 956 0 581 494 
Q 206 988 206 1678 
Q 206 2153 378 2554 
Q 550 2956 876 3175 
Q 1203 3394 1644 3394 
Q 2231 3394 2613 2919 
L 2613 3319 
L 3131 3319 
L 3131 450 
Q 3131 -325 2973 -648 
Q 2816 -972 2473 -1159 
Q 2131 -1347 1631 -1347 
Q 1038 -1347 672 -1080 
Q 306 -813 319 -275 
z
M 784 1719 
Q 784 1066 1043 766 
Q 1303 466 1694 466 
Q 2081 466 2343 764 
Q 2606 1063 2606 1700 
Q 2606 2309 2336 2618 
Q 2066 2928 1684 2928 
Q 1309 2928 1046 2623 
Q 784 2319 784 1719 
z
" transform="scale(0.015625)"/>
        <path id="ArialMT-64" d="M 2575 0 
L 2575 419 
Q 2259 -75 1647 -75 
Q 1250 -75 917 144 
Q 584 363 401 755 
Q 219 1147 219 1656 
Q 219 2153 384 2558 
Q 550 2963 881 3178 
Q 1213 3394 1622 3394 
Q 1922 3394 2156 3267 
Q 2391 3141 2538 2938 
L 2538 4581 
L 3097 4581 
L 3097 0 
L 2575 0 
z
M 797 1656 
Q 797 1019 1065 703 
Q 1334 388 1700 388 
Q 2069 388 2326 689 
Q 2584 991 2584 1609 
Q 2584 2291 2321 2609 
Q 2059 2928 1675 2928 
Q 1300 2928 1048 2622 
Q 797 2316 797 1656 
z
" transform="scale(0.015625)"/>
        <path id="ArialMT-e1" d="M 2588 409 
Q 2275 144 1986 34 
Q 1697 -75 1366 -75 
Q 819 -75 525 192 
Q 231 459 231 875 
Q 231 1119 342 1320 
Q 453 1522 633 1644 
Q 813 1766 1038 1828 
Q 1203 1872 1538 1913 
Q 2219 1994 2541 2106 
Q 2544 2222 2544 2253 
Q 2544 2597 2384 2738 
Q 2169 2928 1744 2928 
Q 1347 2928 1158 2789 
Q 969 2650 878 2297 
L 328 2372 
Q 403 2725 575 2942 
Q 747 3159 1072 3276 
Q 1397 3394 1825 3394 
Q 2250 3394 2515 3294 
Q 2781 3194 2906 3042 
Q 3031 2891 3081 2659 
Q 3109 2516 3109 2141 
L 3109 1391 
Q 3109 606 3145 398 
Q 3181 191 3288 0 
L 2700 0 
Q 2613 175 2588 409 
z
M 2541 1666 
Q 2234 1541 1622 1453 
Q 1275 1403 1131 1340 
Q 988 1278 909 1158 
Q 831 1038 831 891 
Q 831 666 1001 516 
Q 1172 366 1500 366 
Q 1825 366 2078 508 
Q 2331 650 2450 897 
Q 2541 1088 2541 1459 
L 2541 1666 
z
M 1446 3731 
L 1861 4606 
L 2599 4606 
L 1911 3731 
L 1446 3731 
z
" transform="scale(0.015625)"/>
        <path id="ArialMT-ed" d="M 619 0 
L 619 3319 
L 1181 3319 
L 1181 0 
L 619 0 
z
M 590 3731 
L 1005 4606 
L 1743 4606 
L 1055 3731 
L 590 3731 
z
" transform="scale(0.015625)"/>
        <path id="ArialMT-76" d="M 1344 0 
L 81 3319 
L 675 3319 
L 1388 1331 
Q 1503 1009 1600 663 
Q 1675 925 1809 1294 
L 2547 3319 
L 3125 3319 
L 1869 0 
L 1344 0 
z
" transform="scale(0.015625)"/>
        <path id="ArialMT-5b" d="M 434 -1272 
L 434 4581 
L 1675 4581 
L 1675 4116 
L 997 4116 
L 997 -806 
L 1675 -806 
L 1675 -1272 
L 434 -1272 
z
" transform="scale(0.015625)"/>
        <path id="ArialMT-2e" d="M 581 0 
L 581 641 
L 1222 641 
L 1222 0 
L 581 0 
z
" transform="scale(0.015625)"/>
        <path id="ArialMT-5d" d="M 1363 -1272 
L 122 -1272 
L 122 -806 
L 800 -806 
L 800 4116 
L 122 4116 
L 122 4581 
L 1363 4581 
L 1363 -1272 
z
" transform="scale(0.015625)"/>
       </defs>
       <use xlink:href="#ArialMT-50"/>
       <use xlink:href="#ArialMT-72" transform="translate(66.699219 0)"/>
       <use xlink:href="#ArialMT-6f" transform="translate(100 0)"/>
       <use xlink:href="#ArialMT-62" transform="translate(155.615234 0)"/>
       <use xlink:href="#ArialMT-6c" transform="translate(211.230469 0)"/>
       <use xlink:href="#ArialMT-e9" transform="translate(233.447266 0)"/>
       <use xlink:href="#ArialMT-6d" transform="translate(289.0625 0)"/>
       <use xlink:href="#ArialMT-61" transform="translate(372.363281 0)"/>
       <use xlink:href="#ArialMT-6d" transform="translate(427.978516 0)"/>
       <use xlink:href="#ArialMT-65" transform="translate(511.279297 0)"/>
       <use xlink:href="#ArialMT-67" transform="translate(566.894531 0)"/>
       <use xlink:href="#ArialMT-6f" transform="translate(622.509766 0)"/>
       <use xlink:href="#ArialMT-6c" transform="translate(678.125 0)"/>
       <use xlink:href="#ArialMT-64" transform="translate(700.341797 0)"/>
       <use xlink:href="#ArialMT-e1" transform="translate(755.957031 0)"/>
       <use xlink:href="#ArialMT-73" transform="translate(811.572266 0)"/>
       <use xlink:href="#ArialMT-20" transform="translate(861.572266 0)"/>
       <use xlink:href="#ArialMT-6b" transform="translate(889.355469 0)"/>
       <use xlink:href="#ArialMT-72" transform="translate(939.355469 0)"/>
       <use xlink:href="#ArialMT-65" transform="translate(972.65625 0)"/>
       <use xlink:href="#ArialMT-61" transform="translate(1028.271484 0)"/>
       <use xlink:href="#ArialMT-74" transform="translate(1083.886719 0)"/>
       <use xlink:href="#ArialMT-ed" transform="translate(1111.669922 0)"/>
       <use xlink:href="#ArialMT-76" transform="translate(1139.453125 0)"/>
       <use xlink:href="#ArialMT-20" transform="translate(1189.453125 0)"/>
       <use xlink:href="#ArialMT-5b" transform="translate(1217.236328 0)"/>
       <use xlink:href="#ArialMT-2e" transform="translate(1245.019531 0)"/>
       <use xlink:href="#ArialMT-2e" transform="translate(1272.802734 0)"/>
       <use xlink:href="#ArialMT-2e" transform="translate(1300.585938 0)"/>
       <use xlink:href="#ArialMT-5d" transform="translate(1328.369141 0)"/>
      </g>
     </g>
    </g>
   </g>
   <g id="matplotlib.axis_2">
    <g id="ytick_1">
     <g id="line2d_4">
      <path d="M 267.0384 313.7808 
C 267.0384 308.219922 265.943028 302.713116 263.814972 297.575534 
C 261.686916 292.437953 258.567561 287.769508 254.635427 283.837373 
C 250.703292 279.905239 246.034847 276.785884 240.897266 274.657828 
C 235.759684 272.529772 230.252878 271.4344 224.692 271.4344 
C 219.131122 271.4344 213.624316 272.529772 208.486734 274.657828 
C 203.349153 276.785884 198.680708 279.905239 194.748573 283.837373 
C 190.816439 287.769508 187.697084 292.437953 185.569028 297.575534 
C 183.440972 302.713116 182.3456 308.219922 182.3456 313.7808 
C 182.3456 319.341678 183.440972 324.848484 185.569028 329.986066 
C 187.697084 335.123647 190.816439 339.792092 194.748573 343.724227 
C 198.680708 347.656361 203.349153 350.775716 208.486734 352.903772 
C 213.624316 355.031828 219.131122 356.1272 224.692 356.1272 
C 230.252878 356.1272 235.759684 355.031828 240.897266 352.903772 
C 246.034847 350.775716 250.703292 347.656361 254.635427 343.724227 
C 258.567561 339.792092 261.686916 335.123647 263.814972 329.986066 
C 265.943028 324.848484 267.0384 319.341678 267.0384 313.7808 
" clip-path="url(#p8307c9f7b0)" style="fill: none; stroke: #cccccc; stroke-linecap: round"/>
     </g>
     <g id="text_4">
      <!-- 20 -->
      <g style="fill: #262626" transform="translate(267.0384 311.59455) scale(0.11 -0.11)">
       <defs>
        <path id="ArialMT-32" d="M 3222 541 
L 3222 0 
L 194 0 
Q 188 203 259 391 
Q 375 700 629 1000 
Q 884 1300 1366 1694 
Q 2113 2306 2375 2664 
Q 2638 3022 2638 3341 
Q 2638 3675 2398 3904 
Q 2159 4134 1775 4134 
Q 1369 4134 1125 3890 
Q 881 3647 878 3216 
L 300 3275 
Q 359 3922 746 4261 
Q 1134 4600 1788 4600 
Q 2447 4600 2831 4234 
Q 3216 3869 3216 3328 
Q 3216 3053 3103 2787 
Q 2991 2522 2730 2228 
Q 2469 1934 1863 1422 
Q 1356 997 1212 845 
Q 1069 694 975 541 
L 3222 541 
z
" transform="scale(0.015625)"/>
        <path id="ArialMT-30" d="M 266 2259 
Q 266 3072 433 3567 
Q 600 4063 929 4331 
Q 1259 4600 1759 4600 
Q 2128 4600 2406 4451 
Q 2684 4303 2865 4023 
Q 3047 3744 3150 3342 
Q 3253 2941 3253 2259 
Q 3253 1453 3087 958 
Q 2922 463 2592 192 
Q 2263 -78 1759 -78 
Q 1097 -78 719 397 
Q 266 969 266 2259 
z
M 844 2259 
Q 844 1131 1108 757 
Q 1372 384 1759 384 
Q 2147 384 2411 759 
Q 2675 1134 2675 2259 
Q 2675 3391 2411 3762 
Q 2147 4134 1753 4134 
Q 1366 4134 1134 3806 
Q 844 3388 844 2259 
z
" transform="scale(0.015625)"/>
       </defs>
       <use xlink:href="#ArialMT-32"/>
       <use xlink:href="#ArialMT-30" transform="translate(55.615234 0)"/>
      </g>
     </g>
    </g>
    <g id="ytick_2">
     <g id="line2d_5">
      <path d="M 309.3848 313.7808 
C 309.3848 302.659043 307.194056 291.645432 302.937944 281.370269 
C 298.681832 271.095105 292.443123 261.758216 284.578853 253.893947 
C 276.714584 246.029677 267.377695 239.790968 257.102531 235.534856 
C 246.827368 231.278744 235.813757 229.088 224.692 229.088 
C 213.570243 229.088 202.556632 231.278744 192.281469 235.534856 
C 182.006305 239.790968 172.669416 246.029677 164.805147 253.893947 
C 156.940877 261.758216 150.702168 271.095105 146.446056 281.370269 
C 142.189944 291.645432 139.9992 302.659043 139.9992 313.7808 
C 139.9992 324.902557 142.189944 335.916168 146.446056 346.191331 
C 150.702168 356.466495 156.940877 365.803384 164.805147 373.667653 
C 172.669416 381.531923 182.006305 387.770632 192.281469 392.026744 
C 202.556632 396.282856 213.570243 398.4736 224.692 398.4736 
C 235.813757 398.4736 246.827368 396.282856 257.102531 392.026744 
C 267.377695 387.770632 276.714584 381.531923 284.578853 373.667653 
C 292.443123 365.803384 298.681832 356.466495 302.937944 346.191331 
C 307.194056 335.916168 309.3848 324.902557 309.3848 313.7808 
" clip-path="url(#p8307c9f7b0)" style="fill: none; stroke: #cccccc; stroke-linecap: round"/>
     </g>
     <g id="text_5">
      <!-- 40 -->
      <g style="fill: #262626" transform="translate(309.3848 311.59455) scale(0.11 -0.11)">
       <defs>
        <path id="ArialMT-34" d="M 2069 0 
L 2069 1097 
L 81 1097 
L 81 1613 
L 2172 4581 
L 2631 4581 
L 2631 1613 
L 3250 1613 
L 3250 1097 
L 2631 1097 
L 2631 0 
L 2069 0 
z
M 2069 1613 
L 2069 3678 
L 634 1613 
L 2069 1613 
z
" transform="scale(0.015625)"/>
       </defs>
       <use xlink:href="#ArialMT-34"/>
       <use xlink:href="#ArialMT-30" transform="translate(55.615234 0)"/>
      </g>
     </g>
    </g>
    <g id="ytick_3">
     <g id="line2d_6">
      <path d="M 351.7312 313.7808 
C 351.7312 297.098165 348.445085 280.577748 342.060917 265.165003 
C 335.676749 249.752258 326.318684 235.746924 314.52228 223.95052 
C 302.725876 212.154116 288.720542 202.796051 273.307797 196.411883 
C 257.895052 190.027715 241.374635 186.7416 224.692 186.7416 
C 208.009365 186.7416 191.488948 190.027715 176.076203 196.411883 
C 160.663458 202.796051 146.658124 212.154116 134.86172 223.95052 
C 123.065316 235.746924 113.707251 249.752258 107.323083 265.165003 
C 100.938915 280.577748 97.6528 297.098165 97.6528 313.7808 
C 97.6528 330.463435 100.938915 346.983852 107.323083 362.396597 
C 113.707251 377.809342 123.065316 391.814676 134.86172 403.61108 
C 146.658124 415.407484 160.663458 424.765549 176.076203 431.149717 
C 191.488948 437.533885 208.009365 440.82 224.692 440.82 
C 241.374635 440.82 257.895052 437.533885 273.307797 431.149717 
C 288.720542 424.765549 302.725876 415.407484 314.52228 403.61108 
C 326.318684 391.814676 335.676749 377.809342 342.060917 362.396597 
C 348.445085 346.983852 351.7312 330.463435 351.7312 313.7808 
" clip-path="url(#p8307c9f7b0)" style="fill: none; stroke: #cccccc; stroke-linecap: round"/>
     </g>
     <g id="text_6">
      <!-- 60 -->
      <g style="fill: #262626" transform="translate(351.7312 311.59455) scale(0.11 -0.11)">
       <use xlink:href="#ArialMT-36"/>
       <use xlink:href="#ArialMT-30" transform="translate(55.615234 0)"/>
      </g>
     </g>
    </g>
    <g id="ytick_4">
     <g id="line2d_7">
      <path d="M 394.0776 313.7808 
C 394.0776 291.537287 389.696113 269.510064 381.183889 248.959737 
C 372.671665 228.409411 360.194245 209.735633 344.465706 194.007094 
C 328.737167 178.278555 310.063389 165.801135 289.513063 157.288911 
C 268.962736 148.776687 246.935513 144.3952 224.692 144.3952 
C 202.448487 144.3952 180.421264 148.776687 159.870937 157.288911 
C 139.320611 165.801135 120.646833 178.278555 104.918294 194.007094 
C 89.189755 209.735633 76.712335 228.409411 68.200111 248.959737 
C 59.687887 269.510064 55.3064 291.537287 55.3064 313.7808 
C 55.3064 336.024313 59.687887 358.051536 68.200111 378.601863 
C 76.712335 399.152189 89.189755 417.825967 104.918294 433.554506 
C 120.646833 449.283045 139.320611 461.760465 159.870937 470.272689 
C 180.421264 478.784913 202.448487 483.1664 224.692 483.1664 
C 246.935513 483.1664 268.962736 478.784913 289.513063 470.272689 
C 310.063389 461.760465 328.737167 449.283045 344.465706 433.554506 
C 360.194245 417.825967 372.671665 399.152189 381.183889 378.601863 
C 389.696113 358.051536 394.0776 336.024313 394.0776 313.7808 
" clip-path="url(#p8307c9f7b0)" style="fill: none; stroke: #cccccc; stroke-linecap: round"/>
     </g>
     <g id="text_7">
      <!-- 80 -->
      <g style="fill: #262626" transform="translate(394.0776 311.59455) scale(0.11 -0.11)">
       <defs>
        <path id="ArialMT-38" d="M 1131 2484 
Q 781 2613 612 2850 
Q 444 3088 444 3419 
Q 444 3919 803 4259 
Q 1163 4600 1759 4600 
Q 2359 4600 2725 4251 
Q 3091 3903 3091 3403 
Q 3091 3084 2923 2848 
Q 2756 2613 2416 2484 
Q 2838 2347 3058 2040 
Q 3278 1734 3278 1309 
Q 3278 722 2862 322 
Q 2447 -78 1769 -78 
Q 1091 -78 675 323 
Q 259 725 259 1325 
Q 259 1772 486 2073 
Q 713 2375 1131 2484 
z
M 1019 3438 
Q 1019 3113 1228 2906 
Q 1438 2700 1772 2700 
Q 2097 2700 2305 2904 
Q 2513 3109 2513 3406 
Q 2513 3716 2298 3927 
Q 2084 4138 1766 4138 
Q 1444 4138 1231 3931 
Q 1019 3725 1019 3438 
z
M 838 1322 
Q 838 1081 952 856 
Q 1066 631 1291 507 
Q 1516 384 1775 384 
Q 2178 384 2440 643 
Q 2703 903 2703 1303 
Q 2703 1709 2433 1975 
Q 2163 2241 1756 2241 
Q 1359 2241 1098 1978 
Q 838 1716 838 1322 
z
" transform="scale(0.015625)"/>
       </defs>
       <use xlink:href="#ArialMT-38"/>
       <use xlink:href="#ArialMT-30" transform="translate(55.615234 0)"/>
      </g>
     </g>
    </g>
    <g id="ytick_5">
     <g id="line2d_8">
      <path d="M 436.424 313.7808 
C 436.424 285.976409 430.947141 258.44238 420.306861 232.754471 
C 409.666581 207.066563 394.069807 183.724341 374.409133 164.063667 
C 354.748459 144.402993 331.406237 128.806219 305.718329 118.165939 
C 280.03042 107.525659 252.496391 102.0488 224.692 102.0488 
C 196.887609 102.0488 169.35358 107.525659 143.665671 118.165939 
C 117.977763 128.806219 94.635541 144.402993 74.974867 164.063667 
C 55.314193 183.724341 39.717419 207.066563 29.077139 232.754471 
C 18.436859 258.44238 12.96 285.976409 12.96 313.7808 
C 12.96 341.585191 18.436859 369.11922 29.077139 394.807129 
C 39.717419 420.495037 55.314193 443.837259 74.974867 463.497933 
C 94.635541 483.158607 117.977763 498.755381 143.665671 509.395661 
C 169.35358 520.035941 196.887609 525.5128 224.692 525.5128 
C 252.496391 525.5128 280.03042 520.035941 305.718329 509.395661 
C 331.406237 498.755381 354.748459 483.158607 374.409133 463.497933 
C 394.069807 443.837259 409.666581 420.495037 420.306861 394.807129 
C 430.947141 369.11922 436.424 341.585191 436.424 313.7808 
" clip-path="url(#p8307c9f7b0)" style="fill: none; stroke: #cccccc; stroke-linecap: round"/>
     </g>
     <g id="text_8">
      <!-- 100 -->
      <g style="fill: #262626" transform="translate(436.424 311.59455) scale(0.11 -0.11)">
       <use xlink:href="#ArialMT-31"/>
       <use xlink:href="#ArialMT-30" transform="translate(55.615234 0)"/>
       <use xlink:href="#ArialMT-30" transform="translate(111.230469 0)"/>
      </g>
     </g>
    </g>
   </g>
   <g id="patch_3">
    <path d="M 372.9044 313.7808 
L 153.76178 190.926055 
L 144.23384 453.138421 
z
" clip-path="url(#p8307c9f7b0)" style="fill: #4c72b0; opacity: 0.15; stroke: #4c72b0; stroke-linejoin: miter"/>
   </g>
   <g id="patch_4">
    <path d="M 415.2508 313.7808 
L 148.46848 181.757791 
L 142.11652 456.805727 
z
" clip-path="url(#p8307c9f7b0)" style="fill: #dd8452; opacity: 0.15; stroke: #dd8452; stroke-linejoin: miter"/>
   </g>
   <g id="line2d_9">
    <path d="M 372.9044 313.7808 
L 153.76178 190.926055 
L 144.23384 453.138421 
L 372.9044 313.7808 
" clip-path="url(#p8307c9f7b0)" style="fill: none; stroke: #4c72b0; stroke-width: 1.5; stroke-linecap: round"/>
   </g>
   <g id="line2d_10">
    <path d="M 415.2508 313.7808 
L 148.46848 181.757791 
L 142.11652 456.805727 
L 415.2508 313.7808 
" clip-path="url(#p8307c9f7b0)" style="fill: none; stroke: #dd8452; stroke-width: 1.5; stroke-linecap: round"/>
   </g>
   <g id="patch_5">
    <path d="M 436.424 313.7808 
C 436.424 285.976409 430.947141 258.44238 420.306861 232.754471 
C 409.666581 207.066563 394.069807 183.724341 374.409133 164.063667 
C 354.748459 144.402993 331.406237 128.806219 305.718329 118.165939 
C 280.03042 107.525659 252.496391 102.0488 224.692 102.0488 
C 196.887609 102.0488 169.35358 107.525659 143.665671 118.165939 
C 117.977763 128.806219 94.635541 144.402993 74.974867 164.063667 
C 55.314193 183.724341 39.717419 207.066563 29.077139 232.754471 
C 18.436859 258.44238 12.96 285.976409 12.96 313.7808 
C 12.96 341.585191 18.436859 369.11922 29.077139 394.807129 
C 39.717419 420.495037 55.314193 443.837259 74.974867 463.497933 
C 94.635541 483.158607 117.977763 498.755381 143.665671 509.395661 
C 169.35358 520.035941 196.887609 525.5128 224.692 525.5128 
C 252.496391 525.5128 280.03042 520.035941 305.718329 509.395661 
C 331.406237 498.755381 354.748459 483.158607 374.409133 463.497933 
C 394.069807 443.837259 409.666581 420.495037 420.306861 394.807129 
C 430.947141 369.11922 436.424 341.585191 436.424 313.7808 
" style="fill: none; stroke: #cccccc; stroke-width: 1.25; stroke-linejoin: miter; stroke-linecap: square"/>
   </g>
   <g id="text_9">
    <!-- I. Személyes készségek – radar (alcsoport-összegzések) -->
    <g style="fill: #262626" transform="translate(47.686063 62.17168) scale(0.14 -0.14)">
     <defs>
      <path id="ArialMT-49" d="M 597 0 
L 597 4581 
L 1203 4581 
L 1203 0 
L 597 0 
z
" transform="scale(0.015625)"/>
      <path id="ArialMT-53" d="M 288 1472 
L 859 1522 
Q 900 1178 1048 958 
Q 1197 738 1509 602 
Q 1822 466 2213 466 
Q 2559 466 2825 569 
Q 3091 672 3220 851 
Q 3350 1031 3350 1244 
Q 3350 1459 3225 1620 
Q 3100 1781 2813 1891 
Q 2628 1963 1997 2114 
Q 1366 2266 1113 2400 
Q 784 2572 623 2826 
Q 463 3081 463 3397 
Q 463 3744 659 4045 
Q 856 4347 1234 4503 
Q 1613 4659 2075 4659 
Q 2584 4659 2973 4495 
Q 3363 4331 3572 4012 
Q 3781 3694 3797 3291 
L 3216 3247 
Q 3169 3681 2898 3903 
Q 2628 4125 2100 4125 
Q 1550 4125 1298 3923 
Q 1047 3722 1047 3438 
Q 1047 3191 1225 3031 
Q 1400 2872 2139 2705 
Q 2878 2538 3153 2413 
Q 3553 2228 3743 1945 
Q 3934 1663 3934 1294 
Q 3934 928 3725 604 
Q 3516 281 3123 101 
Q 2731 -78 2241 -78 
Q 1619 -78 1198 103 
Q 778 284 539 648 
Q 300 1013 288 1472 
z
" transform="scale(0.015625)"/>
      <path id="ArialMT-79" d="M 397 -1278 
L 334 -750 
Q 519 -800 656 -800 
Q 844 -800 956 -737 
Q 1069 -675 1141 -563 
Q 1194 -478 1313 -144 
Q 1328 -97 1363 -6 
L 103 3319 
L 709 3319 
L 1400 1397 
Q 1534 1031 1641 628 
Q 1738 1016 1872 1384 
L 2581 3319 
L 3144 3319 
L 1881 -56 
Q 1678 -603 1566 -809 
Q 1416 -1088 1222 -1217 
Q 1028 -1347 759 -1347 
Q 597 -1347 397 -1278 
z
" transform="scale(0.015625)"/>
      <path id="ArialMT-63" d="M 2588 1216 
L 3141 1144 
Q 3050 572 2676 248 
Q 2303 -75 1759 -75 
Q 1078 -75 664 370 
Q 250 816 250 1647 
Q 250 2184 428 2587 
Q 606 2991 970 3192 
Q 1334 3394 1763 3394 
Q 2303 3394 2647 3120 
Q 2991 2847 3088 2344 
L 2541 2259 
Q 2463 2594 2264 2762 
Q 2066 2931 1784 2931 
Q 1359 2931 1093 2626 
Q 828 2322 828 1663 
Q 828 994 1084 691 
Q 1341 388 1753 388 
Q 2084 388 2306 591 
Q 2528 794 2588 1216 
z
" transform="scale(0.015625)"/>
      <path id="ArialMT-70" d="M 422 -1272 
L 422 3319 
L 934 3319 
L 934 2888 
Q 1116 3141 1344 3267 
Q 1572 3394 1897 3394 
Q 2322 3394 2647 3175 
Q 2972 2956 3137 2557 
Q 3303 2159 3303 1684 
Q 3303 1175 3120 767 
Q 2938 359 2589 142 
Q 2241 -75 1856 -75 
Q 1575 -75 1351 44 
Q 1128 163 984 344 
L 984 -1272 
L 422 -1272 
z
M 931 1641 
Q 931 1000 1190 694 
Q 1450 388 1819 388 
Q 2194 388 2461 705 
Q 2728 1022 2728 1688 
Q 2728 2322 2467 2637 
Q 2206 2953 1844 2953 
Q 1484 2953 1207 2617 
Q 931 2281 931 1641 
z
" transform="scale(0.015625)"/>
      <path id="ArialMT-2d" d="M 203 1375 
L 203 1941 
L 1931 1941 
L 1931 1375 
L 203 1375 
z
" transform="scale(0.015625)"/>
      <path id="ArialMT-f6" d="M 213 1659 
Q 213 2581 725 3025 
Q 1153 3394 1769 3394 
Q 2453 3394 2887 2945 
Q 3322 2497 3322 1706 
Q 3322 1066 3130 698 
Q 2938 331 2570 128 
Q 2203 -75 1769 -75 
Q 1072 -75 642 372 
Q 213 819 213 1659 
z
M 791 1659 
Q 791 1022 1069 705 
Q 1347 388 1769 388 
Q 2188 388 2466 706 
Q 2744 1025 2744 1678 
Q 2744 2294 2464 2611 
Q 2184 2928 1769 2928 
Q 1347 2928 1069 2612 
Q 791 2297 791 1659 
z
M 895 3969 
L 895 4609 
L 1482 4609 
L 1482 3969 
L 895 3969 
z
M 2060 3969 
L 2060 4609 
L 2648 4609 
L 2648 3969 
L 2060 3969 
z
" transform="scale(0.015625)"/>
     </defs>
     <use xlink:href="#ArialMT-49"/>
     <use xlink:href="#ArialMT-2e" transform="translate(27.783203 0)"/>
     <use xlink:href="#ArialMT-20" transform="translate(55.566406 0)"/>
     <use xlink:href="#ArialMT-53" transform="translate(83.349609 0)"/>
     <use xlink:href="#ArialMT-7a" transform="translate(150.048828 0)"/>
     <use xlink:href="#ArialMT-65" transform="translate(200.048828 0)"/>
     <use xlink:href="#ArialMT-6d" transform="translate(255.664062 0)"/>
     <use xlink:href="#ArialMT-e9" transform="translate(338.964844 0)"/>
     <use xlink:href="#ArialMT-6c" transform="translate(394.580078 0)"/>
     <use xlink:href="#ArialMT-79" transform="translate(416.796875 0)"/>
     <use xlink:href="#ArialMT-65" transform="translate(466.796875 0)"/>
     <use xlink:href="#ArialMT-73" transform="translate(522.412109 0)"/>
     <use xlink:href="#ArialMT-20" transform="translate(572.412109 0)"/>
     <use xlink:href="#ArialMT-6b" transform="translate(600.195312 0)"/>
     <use xlink:href="#ArialMT-e9" transform="translate(650.195312 0)"/>
     <use xlink:href="#ArialMT-73" transform="translate(705.810547 0)"/>
     <use xlink:href="#ArialMT-7a" transform="translate(755.810547 0)"/>
     <use xlink:href="#ArialMT-73" transform="translate(805.810547 0)"/>
     <use xlink:href="#ArialMT-e9" transform="translate(855.810547 0)"/>
     <use xlink:href="#ArialMT-67" transform="translate(911.425781 0)"/>
     <use xlink:href="#ArialMT-65" transform="translate(967.041016 0)"/>
     <use xlink:href="#ArialMT-6b" transform="translate(1022.65625 0)"/>
     <use xlink:href="#ArialMT-20" transform="translate(1072.65625 0)"/>
     <use xlink:href="#ArialMT-2013" transform="translate(1100.439453 0)"/>
     <use xlink:href="#ArialMT-20" transform="translate(1156.054688 0)"/>
     <use xlink:href="#ArialMT-72" transform="translate(1183.837891 0)"/>
     <use xlink:href="#ArialMT-61" transform="translate(1217.138672 0)"/>
     <use xlink:href="#ArialMT-64" transform="translate(1272.753906 0)"/>
     <use xlink:href="#ArialMT-61" transform="translate(1328.369141 0)"/>
     <use xlink:href="#ArialMT-72" transform="translate(1383.984375 0)"/>
     <use xlink:href="#ArialMT-20" transform="translate(1417.285156 0)"/>
     <use xlink:href="#ArialMT-28" transform="translate(1445.068359 0)"/>
     <use xlink:href="#ArialMT-61" transform="translate(1478.369141 0)"/>
     <use xlink:href="#ArialMT-6c" transform="translate(1533.984375 0)"/>
     <use xlink:href="#ArialMT-63" transform="translate(1556.201172 0)"/>
     <use xlink:href="#ArialMT-73" transform="translate(1606.201172 0)"/>
     <use xlink:href="#ArialMT-6f" transform="translate(1656.201172 0)"/>
     <use xlink:href="#ArialMT-70" transform="translate(1711.816406 0)"/>
     <use xlink:href="#ArialMT-6f" transform="translate(1767.431641 0)"/>
     <use xlink:href="#ArialMT-72" transform="translate(1823.046875 0)"/>
     <use xlink:href="#ArialMT-74" transform="translate(1856.347656 0)"/>
     <use xlink:href="#ArialMT-2d" transform="translate(1884.130859 0)"/>
     <use xlink:href="#ArialMT-f6" transform="translate(1917.431641 0)"/>
     <use xlink:href="#ArialMT-73" transform="translate(1973.046875 0)"/>
     <use xlink:href="#ArialMT-73" transform="translate(2023.046875 0)"/>
     <use xlink:href="#ArialMT-7a" transform="translate(2073.046875 0)"/>
     <use xlink:href="#ArialMT-65" transform="translate(2123.046875 0)"/>
     <use xlink:href="#ArialMT-67" transform="translate(2178.662109 0)"/>
     <use xlink:href="#ArialMT-7a" transform="translate(2234.277344 0)"/>
     <use xlink:href="#ArialMT-e9" transform="translate(2284.277344 0)"/>
     <use xlink:href="#ArialMT-73" transform="translate(2339.892578 0)"/>
     <use xlink:href="#ArialMT-65" transform="translate(2389.892578 0)"/>
     <use xlink:href="#ArialMT-6b" transform="translate(2445.507812 0)"/>
     <use xlink:href="#ArialMT-29" transform="translate(2495.507812 0)"/>
    </g>
   </g>
   <g id="legend_1">
    <g id="patch_6">
     <path d="M 467.230388 95.993025 
L 556.4632 95.993025 
Q 558.4632 95.993025 558.4632 93.993025 
L 558.4632 66.7024 
Q 558.4632 64.7024 556.4632 64.7024 
L 467.230388 64.7024 
Q 465.230388 64.7024 465.230388 66.7024 
L 465.230388 93.993025 
Q 465.230388 95.993025 467.230388 95.993025 
z
" style="fill: #ffffff; opacity: 0.8; stroke: #cccccc; stroke-linejoin: miter"/>
    </g>
    <g id="line2d_11">
     <path d="M 469.230388 72.360212 
L 479.230388 72.360212 
L 489.230388 72.360212 
" style="fill: none; stroke: #4c72b0; stroke-width: 1.5; stroke-linecap: round"/>
    </g>
    <g id="text_10">
     <!-- Önértékelés -->
     <g style="fill: #262626" transform="translate(497.230388 75.860212) scale(0.1 -0.1)">
      <use xlink:href="#ArialMT-d6"/>
      <use xlink:href="#ArialMT-6e" transform="translate(77.783203 0)"/>
      <use xlink:href="#ArialMT-e9" transform="translate(133.398438 0)"/>
      <use xlink:href="#ArialMT-72" transform="translate(189.013672 0)"/>
      <use xlink:href="#ArialMT-74" transform="translate(222.314453 0)"/>
      <use xlink:href="#ArialMT-e9" transform="translate(250.097656 0)"/>
      <use xlink:href="#ArialMT-6b" transform="translate(305.712891 0)"/>
      <use xlink:href="#ArialMT-65" transform="translate(355.712891 0)"/>
      <use xlink:href="#ArialMT-6c" transform="translate(411.328125 0)"/>
      <use xlink:href="#ArialMT-e9" transform="translate(433.544922 0)"/>
      <use xlink:href="#ArialMT-73" transform="translate(489.160156 0)"/>
     </g>
    </g>
    <g id="line2d_12">
     <path d="M 469.230388 86.505525 
L 479.230388 86.505525 
L 489.230388 86.505525 
" style="fill: none; stroke: #dd8452; stroke-width: 1.5; stroke-linecap: round"/>
    </g>
    <g id="text_11">
     <!-- Mások rólam -->
     <g style="fill: #262626" transform="translate(497.230388 90.005525) scale(0.1 -0.1)">
      <defs>
       <path id="ArialMT-4d" d="M 475 0 
L 475 4581 
L 1388 4581 
L 2472 1338 
Q 2622 884 2691 659 
Q 2769 909 2934 1394 
L 4031 4581 
L 4847 4581 
L 4847 0 
L 4263 0 
L 4263 3834 
L 2931 0 
L 2384 0 
L 1059 3900 
L 1059 0 
L 475 0 
z
" transform="scale(0.015625)"/>
       <path id="ArialMT-f3" d="M 213 1659 
Q 213 2581 725 3025 
Q 1153 3394 1769 3394 
Q 2453 3394 2887 2945 
Q 3322 2497 3322 1706 
Q 3322 1066 3130 698 
Q 2938 331 2570 128 
Q 2203 -75 1769 -75 
Q 1072 -75 642 372 
Q 213 819 213 1659 
z
M 791 1659 
Q 791 1022 1069 705 
Q 1347 388 1769 388 
Q 2188 388 2466 706 
Q 2744 1025 2744 1678 
Q 2744 2294 2464 2611 
Q 2184 2928 1769 2928 
Q 1347 2928 1069 2612 
Q 791 2297 791 1659 
z
M 1454 3731 
L 1869 4606 
L 2607 4606 
L 1919 3731 
L 1454 3731 
z
" transform="scale(0.015625)"/>
      </defs>
      <use xlink:href="#ArialMT-4d"/>
      <use xlink:href="#ArialMT-e1" transform="translate(83.300781 0)"/>
      <use xlink:href="#ArialMT-73" transform="translate(138.916016 0)"/>
      <use xlink:href="#ArialMT-6f" transform="translate(188.916016 0)"/>
      <use xlink:href="#ArialMT-6b" transform="translate(244.53125 0)"/>
      <use xlink:href="#ArialMT-20" transform="translate(294.53125 0)"/>
      <use xlink:href="#ArialMT-72" transform="translate(322.314453 0)"/>
      <use xlink:href="#ArialMT-f3" transform="translate(355.615234 0)"/>
      <use xlink:href="#ArialMT-6c" transform="translate(411.230469 0)"/>
      <use xlink:href="#ArialMT-61" transform="translate(433.447266 0)"/>
      <use xlink:href="#ArialMT-6d" transform="translate(489.0625 0)"/>
     </g>
    </g>
   </g>
  </g>
 </g>
 <defs>
  <clipPath id="p8307c9f7b0">
   <path d="M 436.424 313.7808 
C 436.424 285.976409 430.947141 258.44238 420.306861 232.754471 
C 409.666581 207.066563 394.069807 183.724341 374.409133 164.063667 
C 354.748459 144.402993 331.406237 128.806219 305.718329 118.165939 
C 280.03042 107.525659 252.496391 102.0488 224.692 102.0488 
C 196.887609 102.0488 169.35358 107.525659 143.665671 118.165939 
C 117.977763 128.806219 94.635541 144.402993 74.974867 164.063667 
C 55.314193 183.724341 39.717419 207.066563 29.077139 232.754471 
C 18.436859 258.44238 12.96 285.976409 12.96 313.7808 
C 12.96 341.585191 18.436859 369.11922 29.077139 394.807129 
C 39.717419 420.495037 55.314193 443.837259 74.974867 463.497933 
C 94.635541 483.158607 117.977763 498.755381 143.665671 509.395661 
C 169.35358 520.035941 196.887609 525.5128 224.692 525.5128 
C 252.496391 525.5128 280.03042 520.035941 305.718329 509.395661 
C 331.406237 498.755381 354.748459 483.158607 374.409133 463.497933 
C 394.069807 443.837259 409.666581 420.495037 420.306861 394.807129 
C 430.947141 369.11922 436.424 341.585191 436.424 313.7808 
M 224.692 313.7808 
C 224.692 313.7808 224.692 313.7808 224.692 313.7808 
C 224.692 313.7808 224.692 313.7808 224.692 313.7808 
C 224.692 313.7808 224.692 313.7808 224.692 313.7808 
C 224.692 313.7808 224.692 313.7808 224.692 313.7808 
C 224.692 313.7808 224.692 313.7808 224.692 313.7808 
C 224.692 313.7808 224.692 313.7808 224.692 313.7808 
C 224.692 313.7808 224.692 313.7808 224.692 313.7808 
C 224.692 313.7808 224.692 313.7808 224.692 313.7808 
C 224.692 313.7808 224.692 313.7808 224.692 313.7808 
C 224.692 313.7808 224.692 313.7808 224.692 313.7808 
C 224.692 313.7808 224.692 313.7808 224.692 313.7808 
C 224.692 313.7808 224.692 313.7808 224.692 313.7808 
C 224.692 313.7808 224.692 313.7808 224.692 313.7808 
C 224.692 313.7808 224.692 313.7808 224.692 313.7808 
C 224.692 313.7808 224.692 313.7808 224.692 313.7808 
C 224.692 313.7808 224.692 313.7808 224.692 313.7808 
z
"/>
  </clipPath>
 </defs>
</svg>
